<svg xmlns="http://www.w3.org/2000/svg" viewBox="0 0 512 512" width="512" height="512">
  <path fill="white" fill-rule="evenodd" d="
    M476.387,144.888
    c-5.291-19.919-20.878-35.608-40.67-40.933
    C399.845,94.282,256,94.282,256,94.282
    s-143.845,0-179.719,9.674
    c-19.791,5.325-35.378,21.013-40.668,40.933
    c-9.612,36.105-9.612,111.438-9.612,111.438
    s0,75.334,9.612,111.438
    c5.29,19.92,20.877,34.955,40.668,40.281
    C112.155,417.719,256,417.719,256,417.719
    s143.845,0,179.717-9.674
    c19.792-5.326,35.379-20.361,40.67-40.281
    c9.612-36.104,9.612-111.438,9.612-111.438
    S485.999,180.994,476.387,144.888
    Z

    M208.954,324.723
    L208.954,187.93
    L329.18,256.328
    Z"/>
</svg>
